<?xml version="1.0" standalone="no"?>
<!DOCTYPE svg PUBLIC "-//W3C//DTD SVG 20010904//EN"
 "http://www.w3.org/TR/2001/REC-SVG-20010904/DTD/svg10.dtd">
<svg version="1.0" xmlns="http://www.w3.org/2000/svg"
 width="444.000000pt" height="444.000000pt" viewBox="0 0 444.000000 444.000000"
 preserveAspectRatio="xMidYMid meet">
<metadata>
Created by potrace 1.11, written by Peter Selinger 2001-2013
</metadata>
<g transform="translate(0.000000,444.000000) scale(0.100000,-0.100000)"
fill="#000000" stroke="none">
<path d="M381 4414 c-131 -35 -256 -134 -318 -250 -66 -125 -63 -10 -63 -1939
0 -1087 4 -1773 10 -1809 23 -143 131 -291 258 -355 129 -65 0 -61 1955 -61
l1779 0 75 25 c162 55 278 171 329 330 l23 70 1 1163 c0 639 -3 1162 -7 1162
-5 -1 -64 -41 -133 -89 l-125 -88 0 -1049 c-1 -1041 -1 -1049 -22 -1095 -27
-61 -81 -115 -140 -141 l-48 -22 -1740 0 c-1601 0 -1743 2 -1778 17 -64 28
-114 75 -143 134 l-28 56 0 1706 c-1 938 3 1731 7 1761 16 106 95 191 199 214
38 8 370 11 1199 11 l1147 -1 33 71 c18 38 45 97 61 129 15 33 28 61 28 63 0
2 -564 3 -1252 2 -1058 0 -1261 -3 -1307 -15z"/>
<path d="M3410 4422 c0 -4 57 -63 125 -132 l126 -124 -327 -327 c-289 -290
-354 -347 -354 -317 0 4 -5 8 -11 8 -6 0 -27 12 -46 28 -20 15 -38 26 -39 25
-8 -4 -44 10 -44 18 0 4 -9 6 -20 4 -11 -2 -20 0 -20 4 0 8 -26 19 -55 25 -5
1 -18 5 -27 9 -10 4 -26 10 -35 14 -10 4 -25 7 -33 8 -34 4 -80 18 -80 25 0 4
-16 6 -35 4 -19 -1 -35 1 -35 7 0 5 -25 9 -55 9 -30 0 -55 3 -55 8 0 10 -316
9 -326 0 -4 -5 -33 -8 -65 -8 -32 0 -61 -5 -64 -10 -4 -6 -14 -10 -23 -9 -25
3 -92 -12 -92 -21 0 -4 -8 -7 -17 -7 -27 1 -73 -14 -73 -24 0 -4 -9 -6 -20 -4
-11 2 -20 0 -20 -6 0 -5 -8 -9 -18 -9 -10 0 -22 -3 -26 -7 -4 -5 -11 -9 -14
-9 -27 -6 -52 -18 -52 -25 0 -5 -3 -9 -7 -8 -16 2 -53 -14 -53 -22 0 -5 -3 -8
-7 -7 -13 2 -46 -14 -80 -39 -18 -13 -33 -21 -33 -17 0 4 -8 -3 -19 -14 -10
-12 -20 -19 -23 -17 -2 3 -15 -6 -28 -20 -13 -14 -28 -25 -33 -25 -5 0 -26
-17 -45 -37 -20 -21 -40 -37 -45 -35 -5 1 -11 -7 -14 -18 -3 -11 -9 -17 -14
-14 -5 3 -12 -3 -16 -12 -3 -10 -33 -44 -65 -76 -32 -32 -58 -62 -58 -66 0 -5
-11 -19 -25 -32 -13 -12 -22 -27 -19 -31 3 -5 1 -9 -4 -9 -10 0 -58 -71 -67
-100 -3 -11 -10 -20 -15 -20 -5 0 -7 -7 -4 -15 4 -8 1 -15 -5 -15 -6 0 -11 -7
-11 -15 0 -8 -4 -15 -10 -15 -5 0 -7 -7 -4 -15 4 -8 2 -15 -4 -15 -9 0 -25
-37 -23 -52 1 -5 -4 -8 -10 -8 -6 0 -9 -6 -6 -14 3 -7 0 -19 -6 -25 -7 -7 -12
-15 -13 -19 -1 -7 -9 -30 -25 -69 -4 -13 -6 -30 -3 -38 4 -8 1 -15 -5 -15 -6
0 -11 -13 -11 -28 0 -16 -3 -32 -7 -36 -8 -8 -11 -28 -19 -131 -3 -38 -9 -74
-13 -80 -12 -17 5 -336 18 -345 4 -3 7 -20 6 -38 0 -17 3 -32 7 -32 4 0 8 -18
8 -40 0 -22 5 -40 10 -40 6 0 10 -6 9 -12 -3 -21 13 -78 22 -78 4 0 6 -9 4
-20 -2 -11 0 -20 6 -20 5 0 9 -11 9 -25 0 -14 4 -25 10 -25 5 0 10 -3 9 -7 -2
-16 14 -53 22 -53 5 0 9 -3 8 -7 -2 -16 14 -53 22 -53 5 0 8 -3 7 -7 -2 -13
14 -46 39 -80 13 -18 21 -33 17 -33 -4 0 3 -9 16 -20 13 -11 20 -20 16 -20 -8
0 39 -64 84 -114 111 -121 154 -166 158 -162 2 3 19 -10 37 -27 44 -43 91 -77
104 -77 6 0 11 -4 11 -10 0 -5 15 -17 33 -25 53 -25 112 -59 119 -70 4 -5 8
-6 8 -2 0 5 12 0 28 -11 15 -11 29 -20 32 -20 6 -1 34 -10 58 -19 9 -3 20 -5
25 -5 4 1 7 -3 7 -8 0 -6 11 -10 25 -10 14 0 25 -5 25 -11 0 -6 9 -8 20 -4 11
4 20 2 20 -4 0 -6 13 -11 29 -11 17 0 32 -4 36 -9 3 -5 17 -8 30 -5 14 2 25 0
25 -6 0 -5 20 -10 44 -10 25 0 47 -4 50 -8 3 -5 39 -7 81 -6 41 1 78 -2 81 -7
7 -12 1421 -12 1429 0 3 6 14 8 25 6 11 -2 20 0 20 6 0 5 5 9 11 9 6 0 17 7
25 15 9 8 12 15 8 15 -4 0 1 10 12 22 20 23 20 37 17 778 -3 716 -6 845 -20
880 -4 8 -7 27 -7 42 -1 14 -4 30 -8 34 -5 4 -8 20 -8 36 0 15 -4 28 -10 28
-5 0 -8 10 -6 23 1 12 0 29 -5 37 -12 24 -22 54 -21 63 1 4 -2 7 -8 7 -5 0
-10 11 -10 25 0 14 -4 25 -9 25 -5 0 -12 14 -16 30 -4 17 -11 30 -16 30 -5 0
-9 3 -8 8 2 15 -14 52 -23 52 -5 0 -7 4 -3 9 3 5 1 12 -5 16 -5 3 -10 13 -10
22 0 9 148 164 328 344 l329 329 130 -131 131 -132 -1 521 0 520 -513 0 c-283
0 -514 -3 -514 -6z m-660 -1576 c47 -15 112 -97 89 -112 -5 -3 -9 -12 -9 -19
0 -19 -31 -55 -47 -55 -7 0 -13 -4 -13 -8 0 -5 -242 -8 -537 -7 -438 0 -543 3
-563 14 -67 38 -81 109 -30 154 16 15 36 27 44 27 8 0 17 3 19 8 7 10 1015 8
1047 -2z m355 -512 c32 -13 68 -60 70 -91 2 -33 -11 -63 -27 -63 -6 0 -16 -7
-22 -16 -11 -14 -102 -15 -886 -15 -481 0 -883 0 -892 0 -19 1 -75 52 -79 73
-9 43 34 108 71 108 11 0 20 3 20 8 0 10 1720 7 1745 -4z m-305 -529 c15 -15
30 -39 33 -53 8 -38 -20 -91 -55 -105 -42 -17 -1082 -15 -1118 2 -29 14 -46
50 -49 98 -2 47 31 77 94 83 27 3 279 4 558 3 l509 -1 28 -27z"/>
</g>
</svg>
